<svg width="240" height="129" viewBox="0 0 240 129" fill="none" xmlns="http://www.w3.org/2000/svg">
<rect width="240" height="129" rx="16" fill="#66DE96"/>
<path d="M119.285 53.06C114.474 46.58 108.477 42.6641 100.737 41.4859C109.105 45.471 115.485 51.4312 119.529 59.8865C125.526 40.3424 144.04 39.199 153 47.3078C149.862 52.1938 145.922 56.2828 140.03 57.461C136.334 58.1887 132.429 58.2926 128.629 58.05C124.899 57.8421 122.04 60.6835 122.04 63.5597C122.04 66.6092 122.388 78.5298 122.597 81.6139C122.702 83.2426 123.643 83.7625 125.212 83.8664C129.605 84.1783 133.929 85.0446 137.938 86.9159C140.204 87.9901 142.331 89.3416 144.493 90.5891C144.423 90.7277 144.353 90.8663 144.284 91.0049H95.6117C96.0998 90.5891 96.4485 90.2771 96.832 90.0345C101.713 86.7425 107.152 84.906 112.975 84.2822C114.334 84.1436 114.997 83.6585 115.345 82.307C116.461 77.8368 116.531 64.4955 115.276 60.06C115.067 59.2629 113.777 58.3272 112.905 58.2233C108.128 57.8074 103.352 57.3569 99.168 54.758C97.355 53.6491 95.6466 52.2631 94.1125 50.773C90.5563 47.2731 88.4643 42.9067 87 38.0553C93.9382 36.2534 100.772 34.9712 107.745 37.1543C114.439 39.2335 118.658 44.986 119.285 53.1294V53.06Z" fill="white"/>
</svg>
